<svg xmlns="http://www.w3.org/2000/svg" viewBox="0 0 64 64" width="64" height="64">
  <defs>
    <linearGradient id="bg" x1="0" y1="0" x2="1" y2="1">
      <stop offset="0%" stop-color="#001632"/>
      <stop offset="100%" stop-color="#003366"/>
    </linearGradient>
  </defs>
  <rect width="64" height="64" rx="14" fill="url(#bg)"/>
  <path d="M22 16v32h14c4.5 0 8-3.2 8-7.5 0-2.8-1.5-5-4-6.5 2-1.3 3.5-3.5 3.5-6 0-4-3.2-7.5-7.5-7.5H26v-4.5H22zm4 9h8c2 0 3.5 1.5 3.5 3.5S36 31 34 31h-8v-6zm0 9.5h10c2.2 0 4 1.8 4 4s-1.8 4-4 4h-10v-8z" fill="white"/>
  <circle cx="48" cy="20" r="6" fill="#00A9CE" opacity="0.9"/>
</svg>
