<svg xmlns="http://www.w3.org/2000/svg" viewBox="0 0 1200 630" width="1200" height="630">
  <defs>
    <linearGradient id="bg" x1="0" y1="0" x2="1" y2="1">
      <stop offset="0%" stop-color="#001632"/>
      <stop offset="100%" stop-color="#003366"/>
    </linearGradient>
  </defs>
  <rect width="1200" height="630" fill="url(#bg)"/>

  <!-- Logo area -->
  <g transform="translate(100, 150)">
    <rect x="0" y="0" width="80" height="80" rx="16" fill="rgba(255,255,255,0.15)"/>
    <path d="M20 12v48h20c6.5 0 12-4.8 12-11.25 0-4.2-2.25-7.5-6-9.75 3-1.95 5.25-5.25 5.25-9 0-6-4.8-11.25-11.25-11.25H26V12h-6zm6 13.5h12c3 0 5.25 2.25 5.25 5.25S44 34 41 34H26v-8.5zm0 14.25h15c3.3 0 6 2.7 6 6s-2.7 6-6 6H26v-12z" fill="white"/>
    <circle cx="60" cy="18" r="9" fill="#00A9CE" opacity="0.9"/>
  </g>

  <!-- Title -->
  <text x="100" y="320" font-family="system-ui, -apple-system, sans-serif" font-size="64" font-weight="700" fill="white">
    BatchlyAI
  </text>

  <!-- Subtitle -->
  <text x="100" y="380" font-family="system-ui, -apple-system, sans-serif" font-size="28" font-weight="400" fill="rgba(255,255,255,0.7)">
    Universal AI Generator — batch generate all combinations from multi-variable prompts
  </text>

  <!-- Bottom bar -->
  <rect x="100" y="440" width="1000" height="3" rx="1.5" fill="rgba(255,255,255,0.1)"/>
  <text x="100" y="510" font-family="system-ui, -apple-system, sans-serif" font-size="20" fill="rgba(255,255,255,0.4)">
    batchlyai.com
  </text>
</svg>
